# xmcd
#
# Track frame offsets:
#	183
#	11650
#	23810
#	34793
#	47950
#	61768
#	72335
#	84913
#	97953
#	110935
#	120580
#	133183
#	142445
#	153180
#	166535
#	179845
#	190768
#
# Disc length: 2682 seconds
#
# Revision: 0
# Processed by: cddbd v1.5.2PL0 Copyright (c) Steve Scherf et al.
# Submitted via: VUPlayer 2.49
#
DISCID=eb0a7811
DTITLE=Freddy Fender - The World of F.F.
DYEAR=1991
DGENRE=Country
TTITLE0=Before the Next Teardrop Falls
TTITLE1=Wasted Days and Wasted Nights
TTITLE2=Mathilda
TTITLE3=Silver Wings
TTITLE4=Baby I Want To Love You
TTITLE5=A Man Can Cry
TTITLE6=Almost Persuaded
TTITLE7=The Girl Who Waits On Tables
TTITLE8=Going Out with the Tide
TTITLE9=But I Do
TTITLE10=Enter My Heart
TTITLE11=Running Back
TTITLE12=Wild Side of Life
TTITLE13=Just Because
TTITLE14=Mean Woman Blues
TTITLE15=The Rain Came
TTITLE16=Crazy Baby
EXTD=
EXTT0=
EXTT1=
EXTT2=
EXTT3=
EXTT4=
EXTT5=
EXTT6=
EXTT7=
EXTT8=
EXTT9=
EXTT10=
EXTT11=
EXTT12=
EXTT13=
EXTT14=
EXTT15=
EXTT16=
PLAYORDER=
